<svg width="1178" height="1140" viewBox="0 0 1178 1140" fill="none" xmlns="http://www.w3.org/2000/svg">
<circle cx="589" cy="570" r="500" fill="#F0CFCF"/>
<path fill-rule="evenodd" clip-rule="evenodd" d="M445.338 177.187C405.328 166.466 364.202 190.21 353.482 230.22C342.761 270.23 366.505 311.355 406.515 322.075L761.835 417.283C776.659 421.255 776.659 442.289 761.835 446.261L62.4774 633.653C55.1759 635.61 48.4161 638.579 42.3087 642.369C23.8338 651.641 9.25257 668.465 3.48165 690.002C-7.23899 730.012 16.5047 771.137 56.5147 781.858L732.663 963.031C772.673 973.752 813.798 950.008 824.519 909.998C835.239 869.988 811.495 828.863 771.486 818.142L416.571 723.043C401.748 719.071 401.748 698.038 416.571 694.066L1115.52 506.782C1123.54 504.633 1130.91 501.262 1137.48 496.923C1155.1 487.481 1168.93 471.055 1174.52 450.216C1185.24 410.206 1161.5 369.081 1121.49 358.36L445.338 177.187Z" fill="#95A393"/>
<circle cx="269" cy="250" r="250" fill="#EB5656"/>
<circle cx="909" cy="890" r="250" fill="#27BF51"/>
</svg>
